<svg width="1125" height="2000" viewBox="0 0 1125 2000" fill="none" xmlns="http://www.w3.org/2000/svg">
<g id="Frame" clip-path="url(#clip0)">
<g id="Frame_2" clip-path="url(#clip1)">
<g id="map">
<path id="Vector" opacity="0.5" d="M1125 0H0V1969.74H1125V0Z" fill="#93BAA5"/>
<rect id="Rectangle 2" width="1125" height="1967.37" fill="#BAE6EC"/>
<g id="Vector_2">
<path d="M880 20L900 0H1120V1300H1100L1080 1280V1260L1060 1240H1040L1020 1260L980 1300L900 1380V1400L860 1440V1480L820 1520H780L760 1500H700L680 1520L660 1540L640 1560H620L600 1540V1500L580 1480H560H540L520 1460V1440L500 1420L480 1400H460L440 1380L420 1360V1340L400 1320L380 1300V1280L360 1260V1240L340 1220H320L300 1200L280 1180L260 1160V1140L280 1120V1100L260 1080H240L220 1060V1040L200 1020L180 1000H160L140 980H120H100L80 960L60 940L40 920L20 900V840L40 820H60L80 800H140L160 780L180 760H200L220 740H240L260 720H280H300L320 740V760L340 780V800L360 820V840L380 860L400 880L420 900L440 920H460L480 900V880L460 860L420 820L380 780V760L360 740L320 700V680L340 660V640L360 620H380L400 640H420L440 620V600L420 580V560V540V520L440 500V480L460 460H480L500 480L520 500H540L560 480V460L540 440L520 420V400L540 380H600L620 400V420L640 440H660L680 420V400V380L700 360L720 340H740L760 360H780L800 340V320L780 300V260L820 220V180L840 160H860L880 140V120L860 100V60L880 40V20Z" fill="#93BAA5"/>
<path d="M880 20L900 0H1120V1300H1100L1080 1280V1260L1060 1240H1040L1020 1260L980 1300L900 1380V1400L860 1440V1480L820 1520H780L760 1500H700L680 1520L660 1540L640 1560H620L600 1540V1500L580 1480H560H540L520 1460V1440L500 1420L480 1400H460L440 1380L420 1360V1340L400 1320L380 1300V1280L360 1260V1240L340 1220H320L300 1200L280 1180L260 1160V1140L280 1120V1100L260 1080H240L220 1060V1040L200 1020L180 1000H160L140 980H120H100L80 960L60 940L40 920L20 900V840L40 820H60L80 800H140L160 780L180 760H200L220 740H240L260 720H280H300L320 740V760L340 780V800L360 820V840L380 860L400 880L420 900L440 920H460L480 900V880L460 860L420 820L380 780V760L360 740L320 700V680L340 660V640L360 620H380L400 640H420L440 620V600L420 580V560V540V520L440 500V480L460 460H480L500 480L520 500H540L560 480V460L540 440L520 420V400L540 380H600L620 400V420L640 440H660L680 420V400V380L700 360L720 340H740L760 360H780L800 340V320L780 300V260L820 220V180L840 160H860L880 140V120L860 100V60L880 40V20Z" stroke="black"/>
<path d="M880 20L900 0H1120V1300H1100L1080 1280V1260L1060 1240H1040L1020 1260L980 1300L900 1380V1400L860 1440V1480L820 1520H780L760 1500H700L680 1520L660 1540L640 1560H620L600 1540V1500L580 1480H560H540L520 1460V1440L500 1420L480 1400H460L440 1380L420 1360V1340L400 1320L380 1300V1280L360 1260V1240L340 1220H320L300 1200L280 1180L260 1160V1140L280 1120V1100L260 1080H240L220 1060V1040L200 1020L180 1000H160L140 980H120H100L80 960L60 940L40 920L20 900V840L40 820H60L80 800H140L160 780L180 760H200L220 740H240L260 720H280H300L320 740V760L340 780V800L360 820V840L380 860L400 880L420 900L440 920H460L480 900V880L460 860L420 820L380 780V760L360 740L320 700V680L340 660V640L360 620H380L400 640H420L440 620V600L420 580V560V540V520L440 500V480L460 460H480L500 480L520 500H540L560 480V460L540 440L520 420V400L540 380H600L620 400V420L640 440H660L680 420V400V380L700 360L720 340H740L760 360H780L800 340V320L780 300V260L820 220V180L840 160H860L880 140V120L860 100V60L880 40V20Z" stroke="url(#paint0_linear)"/>
</g>
<path id="Vector_3" d="M100 1060L80 1040H60L40 1020H20L0 1000V2000H1120V1400L1100 1380H1080L1060 1360L1040 1340H1020L1000 1360H980L960 1380L940 1400V1460L920 1480V1500V1520L900 1540L880 1560H780H740L720 1580H680L660 1600H580H560L540 1580L520 1560V1540L500 1520H480L460 1500V1480L440 1460V1420L420 1400H400L380 1420L360 1441.35V1460V1478.13V1500L380 1520L400 1540V1560V1580L380 1600H360L340 1580V1560L360 1540V1520L340 1500V1480V1460V1420V1400L320 1380V1360L300 1340L280 1320V1300L260 1280L240 1260L220 1240V1220V1200L200 1180L180 1160L160 1140L140 1120V1100L120 1080L100 1060Z" fill="#93BAA5" stroke="black"/>
<path id="Vector_4" d="M820 20L840 0H0V700H100L120 680L140 660V640L120 620V580L80 540V520L100 500H140L160 520V540L180 560H200L220 540V520L200 500H180L160 480V460L180 440H200L220 460H240L260 480H280H300L320 460H340L360 440L380 420L400 400V380L420 360V340L440 320H460L480 300L500 280H520L540 260H560L580 280L600 300H640L680 260H700L740 220V200L720 180V140L740 120V100L720 80V40L740 20H760L780 40V60L760 80V120L740 140V160L760 180H780L800 160V120L820 100V20Z" fill="#93BAA5" stroke="black"/>
</g>
<g id="routes">
<path id="route_201" d="M880 860V900L920 940V960L1000 1040V1060L1020 1080V1100L1040 1120V1140L1060 1160H1080L1100 1180V1200L1080 1220H1040L840 1420V1480L820 1500H780L760 1480H700L640 1540H620V1600L600 1620H560L540 1600H500L480 1620H440L420 1640H400L380 1620" stroke="#4D4D4D" stroke-width="10"/>
<path id="route_202" d="M380 1620L400 1640H420V1540L380 1500V1480L400 1460H420L440 1480V1500L500 1560V1580L520 1600H540L560 1620H600L620 1600V1520M480 1340V1300L460 1280H440L420 1300V1320L480 1380H500L520 1400M520 1400L540 1420V1440L560 1460H600L620 1480V1520M520 1400L540 1380H660V1420L640 1440V1500L620 1520" stroke="#4D4D4D" stroke-width="10"/>
<path id="route_95" d="M880 1580H740L720 1600H680L660 1620H640L620 1600L600 1620H560L540 1600H500L480 1620H440L420 1640H400L380 1620" stroke="#4D4D4D" stroke-width="10"/>
<path id="route_205" d="M0 1260H20L40 1240H80L120 1200V1180L140 1160H180L260 1080M260 1080L240 1060V1040L180 980H160L140 960H100L40 900V860L80 820H120L160 860H180L200 880V900L220 920H240L300 980V1020L320 1040L280 1080H260Z" stroke="#4D4D4D" stroke-width="10"/>
<path id="route_211" d="M280 740H260L220 780M220 780H200L180 800V820L200 840H220L260 880V940L300 980V1020L320 1040L340 1020H360L420 1080H440M220 780V800L240 820H260L280 840V880L300 900H320L380 960H400L460 1020V1060M440 1080V1120L620 1300L640 1280V1220L680 1180V1160L660 1140V1120L600 1060H460M440 1080L460 1060" stroke="#4D4D4D" stroke-width="10"/>
<path id="route_200" d="M500 940V960L600 1060L660 1120V1140L680 1160V1180L640 1220V1280L620 1300L640 1320V1340L660 1360V1380V1420L640 1440V1500L620 1520V1600L600 1620H580H560L540 1600H500L480 1620H440L420 1640H400L380 1620" stroke="#4D4D4D" stroke-width="10"/>
<path id="route_204" d="M760 900H740L720 920H660L640 940V960L620 980H600L580 960V940H520" stroke="#4D4D4D" stroke-width="10"/>
<path id="route_210" d="M760 360H740L720 380V400L700 420V460L660 500H600L580 520M580 520V540L640 600V620L680 660V720L660 740V840L620 880V900L580 940H500V860L480 840H460L420 800V780L400 760V740L420 720V660L460 620V580L440 560V520L460 500H500L520 520H580Z" stroke="#4D4D4D" stroke-width="10"/>
</g>
<g id="stop_210">
<path id="Rectangle 1" d="M760 350H810V370H760V350Z" fill="#F46F5D"/>
<path id="210" d="M780.44 365H773.618V363.646L776.838 360.215C777.28 359.732 777.606 359.31 777.815 358.95C778.03 358.59 778.137 358.248 778.137 357.925C778.137 357.483 778.025 357.136 777.802 356.886C777.578 356.631 777.259 356.503 776.845 356.503C776.398 356.503 776.045 356.658 775.785 356.968C775.53 357.273 775.402 357.676 775.402 358.178H773.42C773.42 357.572 773.563 357.018 773.851 356.517C774.142 356.015 774.552 355.623 775.081 355.341C775.61 355.054 776.209 354.91 776.879 354.91C777.904 354.91 778.7 355.156 779.265 355.648C779.834 356.141 780.119 356.836 780.119 357.733C780.119 358.226 779.992 358.727 779.736 359.237C779.481 359.748 779.044 360.342 778.424 361.021L776.161 363.407H780.44V365ZM786.456 365H784.48V357.385L782.122 358.116V356.51L786.244 355.033H786.456V365ZM796.396 360.885C796.396 362.261 796.111 363.314 795.541 364.043C794.971 364.772 794.137 365.137 793.039 365.137C791.954 365.137 791.125 364.779 790.551 364.063C789.977 363.348 789.683 362.323 789.669 360.987V359.155C789.669 357.765 789.956 356.71 790.53 355.99C791.109 355.27 791.941 354.91 793.025 354.91C794.11 354.91 794.939 355.268 795.514 355.983C796.088 356.694 796.382 357.717 796.396 359.053V360.885ZM794.42 358.875C794.42 358.05 794.306 357.451 794.078 357.077C793.855 356.699 793.504 356.51 793.025 356.51C792.561 356.51 792.216 356.69 791.993 357.05C791.774 357.405 791.658 357.964 791.645 358.725V361.145C791.645 361.956 791.754 362.56 791.973 362.956C792.196 363.348 792.551 363.544 793.039 363.544C793.522 363.544 793.871 363.355 794.085 362.977C794.299 362.598 794.411 362.02 794.42 361.24V358.875Z" fill="white"/>
</g>
<g id="stop_201">
<path id="Rectangle 1_2" d="M850 840H900V860H850V840Z" fill="#F46F5D"/>
<path id="201" d="M870.441 855H863.618V853.647L866.838 850.215C867.28 849.732 867.606 849.31 867.816 848.95C868.03 848.59 868.137 848.248 868.137 847.925C868.137 847.483 868.025 847.136 867.802 846.886C867.579 846.631 867.26 846.503 866.845 846.503C866.398 846.503 866.045 846.658 865.785 846.968C865.53 847.273 865.402 847.676 865.402 848.178H863.42C863.42 847.572 863.564 847.018 863.851 846.517C864.142 846.015 864.553 845.623 865.081 845.341C865.61 845.054 866.209 844.91 866.879 844.91C867.904 844.91 868.7 845.156 869.265 845.648C869.834 846.141 870.119 846.836 870.119 847.733C870.119 848.226 869.992 848.727 869.736 849.237C869.481 849.748 869.044 850.342 868.424 851.022L866.161 853.407H870.441V855ZM878.357 850.885C878.357 852.261 878.072 853.314 877.502 854.043C876.932 854.772 876.098 855.137 875 855.137C873.915 855.137 873.086 854.779 872.512 854.064C871.938 853.348 871.644 852.323 871.63 850.987V849.155C871.63 847.765 871.917 846.71 872.491 845.99C873.07 845.27 873.902 844.91 874.986 844.91C876.071 844.91 876.9 845.268 877.475 845.983C878.049 846.694 878.343 847.717 878.357 849.053V850.885ZM876.381 848.875C876.381 848.05 876.267 847.451 876.039 847.077C875.816 846.699 875.465 846.51 874.986 846.51C874.522 846.51 874.178 846.69 873.954 847.05C873.735 847.405 873.619 847.964 873.606 848.725V851.145C873.606 851.956 873.715 852.56 873.934 852.956C874.157 853.348 874.512 853.544 875 853.544C875.483 853.544 875.832 853.355 876.046 852.977C876.26 852.598 876.372 852.02 876.381 851.24V848.875ZM884.495 855H882.52V847.385L880.161 848.116V846.51L884.283 845.033H884.495V855Z" fill="white"/>
</g>
<g id="stop_204">
<path id="Rectangle 1_3" d="M760 890H810V910H760V890Z" fill="#F46F5D"/>
<path id="204" d="M780.44 905H773.618V903.646L776.838 900.215C777.28 899.732 777.606 899.31 777.815 898.95C778.03 898.59 778.137 898.248 778.137 897.925C778.137 897.483 778.025 897.136 777.802 896.886C777.578 896.631 777.259 896.503 776.845 896.503C776.398 896.503 776.045 896.658 775.785 896.968C775.53 897.273 775.402 897.676 775.402 898.178H773.42C773.42 897.572 773.563 897.018 773.851 896.517C774.142 896.015 774.552 895.623 775.081 895.341C775.61 895.054 776.209 894.91 776.879 894.91C777.904 894.91 778.7 895.156 779.265 895.648C779.834 896.141 780.119 896.836 780.119 897.733C780.119 898.226 779.992 898.727 779.736 899.237C779.481 899.748 779.044 900.342 778.424 901.021L776.161 903.407H780.44V905ZM788.356 900.885C788.356 902.261 788.072 903.314 787.502 904.043C786.932 904.772 786.098 905.137 785 905.137C783.915 905.137 783.086 904.779 782.512 904.063C781.938 903.348 781.644 902.323 781.63 900.987V899.155C781.63 897.765 781.917 896.71 782.491 895.99C783.07 895.27 783.902 894.91 784.986 894.91C786.071 894.91 786.9 895.268 787.475 895.983C788.049 896.694 788.343 897.717 788.356 899.053V900.885ZM786.381 898.875C786.381 898.05 786.267 897.451 786.039 897.077C785.816 896.699 785.465 896.51 784.986 896.51C784.521 896.51 784.177 896.69 783.954 897.05C783.735 897.405 783.619 897.964 783.605 898.725V901.145C783.605 901.956 783.715 902.56 783.934 902.956C784.157 903.348 784.512 903.544 785 903.544C785.483 903.544 785.832 903.355 786.046 902.977C786.26 902.598 786.372 902.02 786.381 901.24V898.875ZM795.541 901.254H796.669V902.847H795.541V905H793.565V902.847H789.484L789.396 901.603L793.545 895.047H795.541V901.254ZM791.364 901.254H793.565V897.74L793.436 897.966L791.364 901.254Z" fill="white"/>
</g>
<g id="stop_95">
<path id="Rectangle 1_4" d="M880 1570H930V1590H880V1570Z" fill="#F46F5D"/>
<path id="95" d="M902.259 1581.02C901.744 1581.53 901.142 1581.78 900.454 1581.78C899.575 1581.78 898.871 1581.48 898.342 1580.88C897.813 1580.27 897.549 1579.46 897.549 1578.43C897.549 1577.78 897.69 1577.18 897.973 1576.64C898.26 1576.09 898.659 1575.67 899.169 1575.37C899.679 1575.06 900.254 1574.91 900.892 1574.91C901.548 1574.91 902.131 1575.07 902.642 1575.4C903.152 1575.73 903.549 1576.2 903.831 1576.82C904.114 1577.43 904.257 1578.14 904.262 1578.93V1579.66C904.262 1581.32 903.849 1582.62 903.025 1583.57C902.2 1584.52 901.031 1585.03 899.518 1585.09L899.032 1585.1V1583.45L899.47 1583.44C901.188 1583.36 902.118 1582.56 902.259 1581.02ZM900.94 1580.27C901.259 1580.27 901.532 1580.19 901.76 1580.02C901.992 1579.86 902.168 1579.66 902.286 1579.43V1578.62C902.286 1577.95 902.159 1577.43 901.903 1577.06C901.648 1576.69 901.306 1576.5 900.878 1576.5C900.482 1576.5 900.156 1576.69 899.9 1577.05C899.645 1577.41 899.518 1577.86 899.518 1578.41C899.518 1578.95 899.641 1579.4 899.887 1579.75C900.137 1580.1 900.488 1580.27 900.94 1580.27ZM905.971 1580.11L906.545 1575.05H912.123V1576.69H908.165L907.919 1578.83C908.388 1578.58 908.887 1578.46 909.416 1578.46C910.364 1578.46 911.107 1578.75 911.645 1579.34C912.182 1579.93 912.451 1580.75 912.451 1581.81C912.451 1582.45 912.315 1583.03 912.041 1583.54C911.772 1584.04 911.385 1584.44 910.879 1584.72C910.373 1585 909.776 1585.14 909.088 1585.14C908.486 1585.14 907.928 1585.02 907.413 1584.77C906.898 1584.53 906.49 1584.18 906.19 1583.74C905.893 1583.3 905.736 1582.8 905.718 1582.23H907.673C907.714 1582.65 907.858 1582.97 908.104 1583.2C908.354 1583.43 908.68 1583.54 909.081 1583.54C909.528 1583.54 909.872 1583.38 910.113 1583.07C910.355 1582.74 910.476 1582.29 910.476 1581.7C910.476 1581.13 910.337 1580.7 910.059 1580.4C909.781 1580.1 909.386 1579.95 908.876 1579.95C908.407 1579.95 908.026 1580.07 907.734 1580.32L907.543 1580.5L905.971 1580.11Z" fill="white"/>
</g>
<g id="stop_211">
<path id="Rectangle 1_5" d="M280 730H330V750H280V730Z" fill="#F46F5D"/>
<path id="211" d="M300.44 745H293.618V743.646L296.838 740.215C297.28 739.732 297.606 739.31 297.815 738.95C298.03 738.59 298.137 738.248 298.137 737.925C298.137 737.483 298.025 737.136 297.802 736.886C297.578 736.631 297.259 736.503 296.845 736.503C296.398 736.503 296.045 736.658 295.785 736.968C295.53 737.273 295.402 737.676 295.402 738.178H293.42C293.42 737.572 293.563 737.018 293.851 736.517C294.142 736.015 294.552 735.623 295.081 735.341C295.61 735.054 296.209 734.91 296.879 734.91C297.904 734.91 298.7 735.156 299.265 735.648C299.834 736.141 300.119 736.836 300.119 737.733C300.119 738.226 299.992 738.727 299.736 739.237C299.481 739.748 299.044 740.342 298.424 741.021L296.161 743.407H300.44V745ZM306.456 745H304.48V737.385L302.122 738.116V736.51L306.244 735.033H306.456V745ZM314.495 745H312.52V737.385L310.161 738.116V736.51L314.283 735.033H314.495V745Z" fill="white"/>
</g>
<g id="stop_202">
<path id="Rectangle 1_6" d="M460 1400H510V1420H460V1400Z" fill="#F46F5D"/>
<path id="202" d="M480.441 1415H473.618V1413.65L476.838 1410.21C477.28 1409.73 477.606 1409.31 477.816 1408.95C478.03 1408.59 478.137 1408.25 478.137 1407.92C478.137 1407.48 478.025 1407.14 477.802 1406.89C477.579 1406.63 477.26 1406.5 476.845 1406.5C476.398 1406.5 476.045 1406.66 475.785 1406.97C475.53 1407.27 475.402 1407.68 475.402 1408.18H473.42C473.42 1407.57 473.564 1407.02 473.851 1406.52C474.142 1406.02 474.552 1405.62 475.081 1405.34C475.61 1405.05 476.209 1404.91 476.879 1404.91C477.904 1404.91 478.7 1405.16 479.265 1405.65C479.834 1406.14 480.119 1406.84 480.119 1407.73C480.119 1408.23 479.992 1408.73 479.736 1409.24C479.481 1409.75 479.044 1410.34 478.424 1411.02L476.161 1413.41H480.441V1415ZM488.357 1410.88C488.357 1412.26 488.072 1413.31 487.502 1414.04C486.932 1414.77 486.098 1415.14 485 1415.14C483.915 1415.14 483.086 1414.78 482.512 1414.06C481.938 1413.35 481.644 1412.32 481.63 1410.99V1409.16C481.63 1407.77 481.917 1406.71 482.491 1405.99C483.07 1405.27 483.902 1404.91 484.986 1404.91C486.071 1404.91 486.9 1405.27 487.475 1405.98C488.049 1406.69 488.343 1407.72 488.357 1409.05V1410.88ZM486.381 1408.88C486.381 1408.05 486.267 1407.45 486.039 1407.08C485.816 1406.7 485.465 1406.51 484.986 1406.51C484.522 1406.51 484.177 1406.69 483.954 1407.05C483.735 1407.41 483.619 1407.96 483.606 1408.72V1411.14C483.606 1411.96 483.715 1412.56 483.934 1412.96C484.157 1413.35 484.512 1413.54 485 1413.54C485.483 1413.54 485.832 1413.35 486.046 1412.98C486.26 1412.6 486.372 1412.02 486.381 1411.24V1408.88ZM496.519 1415H489.696V1413.65L492.916 1410.21C493.358 1409.73 493.684 1409.31 493.894 1408.95C494.108 1408.59 494.215 1408.25 494.215 1407.92C494.215 1407.48 494.103 1407.14 493.88 1406.89C493.657 1406.63 493.338 1406.5 492.923 1406.5C492.476 1406.5 492.123 1406.66 491.863 1406.97C491.608 1407.27 491.481 1407.68 491.481 1408.18H489.498C489.498 1407.57 489.642 1407.02 489.929 1406.52C490.22 1406.02 490.631 1405.62 491.159 1405.34C491.688 1405.05 492.287 1404.91 492.957 1404.91C493.983 1404.91 494.778 1405.16 495.343 1405.65C495.913 1406.14 496.197 1406.84 496.197 1407.73C496.197 1408.23 496.07 1408.73 495.815 1409.24C495.559 1409.75 495.122 1410.34 494.502 1411.02L492.239 1413.41H496.519V1415Z" fill="white"/>
</g>
<g id="stop_202_2">
<path id="Rectangle 1_7" d="M460 1340H510V1360H460V1340Z" fill="#F46F5D"/>
<path id="202_2" d="M480.441 1355H473.618V1353.65L476.838 1350.21C477.28 1349.73 477.606 1349.31 477.816 1348.95C478.03 1348.59 478.137 1348.25 478.137 1347.92C478.137 1347.48 478.025 1347.14 477.802 1346.89C477.579 1346.63 477.26 1346.5 476.845 1346.5C476.398 1346.5 476.045 1346.66 475.785 1346.97C475.53 1347.27 475.403 1347.68 475.403 1348.18H473.42C473.42 1347.57 473.564 1347.02 473.851 1346.52C474.142 1346.02 474.553 1345.62 475.081 1345.34C475.61 1345.05 476.209 1344.91 476.879 1344.91C477.904 1344.91 478.7 1345.16 479.265 1345.65C479.834 1346.14 480.119 1346.84 480.119 1347.73C480.119 1348.23 479.992 1348.73 479.737 1349.24C479.481 1349.75 479.044 1350.34 478.424 1351.02L476.161 1353.41H480.441V1355ZM488.357 1350.88C488.357 1352.26 488.072 1353.31 487.502 1354.04C486.932 1354.77 486.098 1355.14 485 1355.14C483.916 1355.14 483.086 1354.78 482.512 1354.06C481.938 1353.35 481.644 1352.32 481.63 1350.99V1349.16C481.63 1347.77 481.917 1346.71 482.491 1345.99C483.07 1345.27 483.902 1344.91 484.987 1344.91C486.071 1344.91 486.901 1345.27 487.475 1345.98C488.049 1346.69 488.343 1347.72 488.357 1349.05V1350.88ZM486.381 1348.88C486.381 1348.05 486.267 1347.45 486.039 1347.08C485.816 1346.7 485.465 1346.51 484.987 1346.51C484.522 1346.51 484.178 1346.69 483.954 1347.05C483.736 1347.41 483.619 1347.96 483.606 1348.72V1351.14C483.606 1351.96 483.715 1352.56 483.934 1352.96C484.157 1353.35 484.513 1353.54 485 1353.54C485.483 1353.54 485.832 1353.35 486.046 1352.98C486.26 1352.6 486.372 1352.02 486.381 1351.24V1348.88ZM496.519 1355H489.696V1353.65L492.916 1350.21C493.358 1349.73 493.684 1349.31 493.894 1348.95C494.108 1348.59 494.215 1348.25 494.215 1347.92C494.215 1347.48 494.103 1347.14 493.88 1346.89C493.657 1346.63 493.338 1346.5 492.923 1346.5C492.476 1346.5 492.123 1346.66 491.863 1346.97C491.608 1347.27 491.481 1347.68 491.481 1348.18H489.498C489.498 1347.57 489.642 1347.02 489.929 1346.52C490.221 1346.02 490.631 1345.62 491.159 1345.34C491.688 1345.05 492.287 1344.91 492.957 1344.91C493.983 1344.91 494.778 1345.16 495.343 1345.65C495.913 1346.14 496.197 1346.84 496.197 1347.73C496.197 1348.23 496.07 1348.73 495.815 1349.24C495.559 1349.75 495.122 1350.34 494.502 1351.02L492.239 1353.41H496.519V1355Z" fill="white"/>
</g>
<g id="stop_212">
<path id="Rectangle 1_8" d="M260 1070H310V1090H260V1070Z" fill="#F46F5D"/>
<path id="205" d="M280.941 1085H274.118V1083.65L277.338 1080.21C277.78 1079.73 278.106 1079.31 278.316 1078.95C278.53 1078.59 278.637 1078.25 278.637 1077.92C278.637 1077.48 278.525 1077.14 278.302 1076.89C278.079 1076.63 277.76 1076.5 277.345 1076.5C276.898 1076.5 276.545 1076.66 276.285 1076.97C276.03 1077.27 275.902 1077.68 275.902 1078.18H273.92C273.92 1077.57 274.064 1077.02 274.351 1076.52C274.642 1076.02 275.053 1075.62 275.581 1075.34C276.11 1075.05 276.709 1074.91 277.379 1074.91C278.404 1074.91 279.2 1075.16 279.765 1075.65C280.334 1076.14 280.619 1076.84 280.619 1077.73C280.619 1078.23 280.492 1078.73 280.236 1079.24C279.981 1079.75 279.544 1080.34 278.924 1081.02L276.661 1083.41H280.941V1085ZM288.857 1080.88C288.857 1082.26 288.572 1083.31 288.002 1084.04C287.432 1084.77 286.598 1085.14 285.5 1085.14C284.415 1085.14 283.586 1084.78 283.012 1084.06C282.438 1083.35 282.144 1082.32 282.13 1080.99V1079.16C282.13 1077.77 282.417 1076.71 282.991 1075.99C283.57 1075.27 284.402 1074.91 285.486 1074.91C286.571 1074.91 287.4 1075.27 287.975 1075.98C288.549 1076.69 288.843 1077.72 288.857 1079.05V1080.88ZM286.881 1078.88C286.881 1078.05 286.767 1077.45 286.539 1077.08C286.316 1076.7 285.965 1076.51 285.486 1076.51C285.022 1076.51 284.678 1076.69 284.454 1077.05C284.235 1077.41 284.119 1077.96 284.106 1078.72V1081.14C284.106 1081.96 284.215 1082.56 284.434 1082.96C284.657 1083.35 285.012 1083.54 285.5 1083.54C285.983 1083.54 286.332 1083.35 286.546 1082.98C286.76 1082.6 286.872 1082.02 286.881 1081.24V1078.88ZM290.49 1080.11L291.065 1075.05H296.643V1076.69H292.685L292.439 1078.83C292.908 1078.58 293.407 1078.46 293.936 1078.46C294.884 1078.46 295.626 1078.75 296.164 1079.34C296.702 1079.93 296.971 1080.75 296.971 1081.81C296.971 1082.45 296.834 1083.03 296.561 1083.54C296.292 1084.04 295.904 1084.44 295.399 1084.72C294.893 1085 294.296 1085.14 293.608 1085.14C293.006 1085.14 292.448 1085.02 291.933 1084.77C291.418 1084.53 291.01 1084.18 290.709 1083.74C290.413 1083.3 290.256 1082.8 290.237 1082.23H292.192C292.233 1082.65 292.377 1082.97 292.623 1083.2C292.874 1083.43 293.2 1083.54 293.601 1083.54C294.047 1083.54 294.391 1083.38 294.633 1083.07C294.874 1082.74 294.995 1082.29 294.995 1081.7C294.995 1081.13 294.856 1080.7 294.578 1080.4C294.3 1080.1 293.906 1079.95 293.396 1079.95C292.926 1079.95 292.546 1080.07 292.254 1080.32L292.063 1080.5L290.49 1080.11Z" fill="white"/>
</g>
<g id="popup_arna">
<path id="Union" d="M377.478 1610L383.925 1616.82L387.453 1620H330V1670H140V1610L377.478 1610Z" fill="#F8F8F8"/>
<g id="213">
<path id="Rectangle 1_9" d="M150 1640H200V1660H150V1640Z" fill="#F46F5D"/>
<path id="95_2" d="M172.259 1651.02C171.744 1651.53 171.142 1651.78 170.454 1651.78C169.575 1651.78 168.871 1651.48 168.342 1650.88C167.813 1650.27 167.549 1649.46 167.549 1648.43C167.549 1647.78 167.69 1647.18 167.973 1646.64C168.26 1646.09 168.659 1645.67 169.169 1645.37C169.679 1645.06 170.254 1644.91 170.892 1644.91C171.548 1644.91 172.131 1645.07 172.642 1645.4C173.152 1645.73 173.549 1646.2 173.831 1646.82C174.114 1647.43 174.257 1648.14 174.262 1648.93V1649.66C174.262 1651.32 173.849 1652.62 173.025 1653.57C172.2 1654.52 171.031 1655.03 169.518 1655.09L169.032 1655.1V1653.45L169.47 1653.44C171.188 1653.36 172.118 1652.56 172.259 1651.02ZM170.94 1650.27C171.259 1650.27 171.532 1650.19 171.76 1650.02C171.992 1649.86 172.168 1649.66 172.286 1649.43V1648.62C172.286 1647.95 172.159 1647.43 171.903 1647.06C171.648 1646.69 171.306 1646.5 170.878 1646.5C170.482 1646.5 170.156 1646.69 169.9 1647.05C169.645 1647.41 169.518 1647.86 169.518 1648.41C169.518 1648.95 169.641 1649.4 169.887 1649.75C170.137 1650.1 170.488 1650.27 170.94 1650.27ZM175.971 1650.11L176.545 1645.05H182.123V1646.69H178.165L177.919 1648.83C178.388 1648.58 178.887 1648.46 179.416 1648.46C180.364 1648.46 181.107 1648.75 181.645 1649.34C182.182 1649.93 182.451 1650.75 182.451 1651.81C182.451 1652.45 182.315 1653.03 182.041 1653.54C181.772 1654.04 181.385 1654.44 180.879 1654.72C180.373 1655 179.776 1655.14 179.088 1655.14C178.486 1655.14 177.928 1655.02 177.413 1654.77C176.898 1654.53 176.49 1654.18 176.19 1653.74C175.893 1653.3 175.736 1652.8 175.718 1652.23H177.673C177.714 1652.65 177.858 1652.97 178.104 1653.2C178.354 1653.43 178.68 1653.54 179.081 1653.54C179.528 1653.54 179.872 1653.38 180.113 1653.07C180.355 1652.74 180.476 1652.29 180.476 1651.7C180.476 1651.13 180.337 1650.7 180.059 1650.4C179.781 1650.1 179.386 1649.95 178.876 1649.95C178.407 1649.95 178.026 1650.07 177.734 1650.32L177.543 1650.5L175.971 1650.11Z" fill="white"/>
</g>
<g id="214">
<path id="Rectangle 1_10" d="M210 1640H260V1660H210V1640Z" fill="#F46F5D"/>
<path id="200" d="M230.441 1655H223.618V1653.65L226.838 1650.22C227.28 1649.73 227.606 1649.31 227.816 1648.95C228.03 1648.59 228.137 1648.25 228.137 1647.93C228.137 1647.48 228.025 1647.14 227.802 1646.89C227.579 1646.63 227.26 1646.5 226.845 1646.5C226.398 1646.5 226.045 1646.66 225.785 1646.97C225.53 1647.27 225.402 1647.68 225.402 1648.18H223.42C223.42 1647.57 223.564 1647.02 223.851 1646.52C224.142 1646.02 224.553 1645.62 225.081 1645.34C225.61 1645.05 226.209 1644.91 226.879 1644.91C227.904 1644.91 228.7 1645.16 229.265 1645.65C229.834 1646.14 230.119 1646.84 230.119 1647.73C230.119 1648.23 229.992 1648.73 229.736 1649.24C229.481 1649.75 229.044 1650.34 228.424 1651.02L226.161 1653.41H230.441V1655ZM238.357 1650.89C238.357 1652.26 238.072 1653.31 237.502 1654.04C236.932 1654.77 236.098 1655.14 235 1655.14C233.915 1655.14 233.086 1654.78 232.512 1654.06C231.938 1653.35 231.644 1652.32 231.63 1650.99V1649.16C231.63 1647.77 231.917 1646.71 232.491 1645.99C233.07 1645.27 233.902 1644.91 234.986 1644.91C236.071 1644.91 236.9 1645.27 237.475 1645.98C238.049 1646.69 238.343 1647.72 238.357 1649.05V1650.89ZM236.381 1648.88C236.381 1648.05 236.267 1647.45 236.039 1647.08C235.816 1646.7 235.465 1646.51 234.986 1646.51C234.522 1646.51 234.178 1646.69 233.954 1647.05C233.735 1647.41 233.619 1647.96 233.606 1648.72V1651.14C233.606 1651.96 233.715 1652.56 233.934 1652.96C234.157 1653.35 234.512 1653.54 235 1653.54C235.483 1653.54 235.832 1653.36 236.046 1652.98C236.26 1652.6 236.372 1652.02 236.381 1651.24V1648.88ZM246.396 1650.89C246.396 1652.26 246.111 1653.31 245.541 1654.04C244.971 1654.77 244.137 1655.14 243.039 1655.14C241.955 1655.14 241.125 1654.78 240.551 1654.06C239.977 1653.35 239.683 1652.32 239.669 1650.99V1649.16C239.669 1647.77 239.956 1646.71 240.53 1645.99C241.109 1645.27 241.941 1644.91 243.025 1644.91C244.11 1644.91 244.94 1645.27 245.514 1645.98C246.088 1646.69 246.382 1647.72 246.396 1649.05V1650.89ZM244.42 1648.88C244.42 1648.05 244.306 1647.45 244.078 1647.08C243.855 1646.7 243.504 1646.51 243.025 1646.51C242.561 1646.51 242.217 1646.69 241.993 1647.05C241.775 1647.41 241.658 1647.96 241.645 1648.72V1651.14C241.645 1651.96 241.754 1652.56 241.973 1652.96C242.196 1653.35 242.552 1653.54 243.039 1653.54C243.522 1653.54 243.871 1653.36 244.085 1652.98C244.299 1652.6 244.411 1652.02 244.42 1651.24V1648.88Z" fill="white"/>
</g>
<g id="215">
<path id="Rectangle 1_11" d="M270 1640H320V1660H270V1640Z" fill="#F46F5D"/>
<path id="201_2" d="M290.441 1655H283.618V1653.65L286.838 1650.22C287.28 1649.73 287.606 1649.31 287.816 1648.95C288.03 1648.59 288.137 1648.25 288.137 1647.93C288.137 1647.48 288.025 1647.14 287.802 1646.89C287.579 1646.63 287.26 1646.5 286.845 1646.5C286.398 1646.5 286.045 1646.66 285.785 1646.97C285.53 1647.27 285.403 1647.68 285.403 1648.18H283.42C283.42 1647.57 283.564 1647.02 283.851 1646.52C284.142 1646.02 284.553 1645.62 285.081 1645.34C285.61 1645.05 286.209 1644.91 286.879 1644.91C287.904 1644.91 288.7 1645.16 289.265 1645.65C289.834 1646.14 290.119 1646.84 290.119 1647.73C290.119 1648.23 289.992 1648.73 289.737 1649.24C289.481 1649.75 289.044 1650.34 288.424 1651.02L286.161 1653.41H290.441V1655ZM298.357 1650.89C298.357 1652.26 298.072 1653.31 297.502 1654.04C296.932 1654.77 296.098 1655.14 295 1655.14C293.916 1655.14 293.086 1654.78 292.512 1654.06C291.938 1653.35 291.644 1652.32 291.63 1650.99V1649.16C291.63 1647.77 291.917 1646.71 292.491 1645.99C293.07 1645.27 293.902 1644.91 294.987 1644.91C296.071 1644.91 296.901 1645.27 297.475 1645.98C298.049 1646.69 298.343 1647.72 298.357 1649.05V1650.89ZM296.381 1648.88C296.381 1648.05 296.267 1647.45 296.039 1647.08C295.816 1646.7 295.465 1646.51 294.987 1646.51C294.522 1646.51 294.178 1646.69 293.954 1647.05C293.736 1647.41 293.619 1647.96 293.606 1648.72V1651.14C293.606 1651.96 293.715 1652.56 293.934 1652.96C294.157 1653.35 294.513 1653.54 295 1653.54C295.483 1653.54 295.832 1653.36 296.046 1652.98C296.26 1652.6 296.372 1652.02 296.381 1651.24V1648.88ZM304.495 1655H302.52V1647.39L300.161 1648.12V1646.51L304.283 1645.03H304.495V1655Z" fill="white"/>
</g>
<path id="Arna Terminal" d="M155.19 1627.28H151.334L150.528 1629.6H148.73L152.49 1619.65H154.041L157.808 1629.6H156.003L155.19 1627.28ZM151.82 1625.89H154.704L153.262 1621.76L151.82 1625.89ZM162.655 1623.72C162.436 1623.69 162.21 1623.67 161.978 1623.67C161.217 1623.67 160.704 1623.96 160.44 1624.54V1629.6H158.779V1622.2H160.365L160.406 1623.03C160.807 1622.39 161.363 1622.07 162.073 1622.07C162.31 1622.07 162.506 1622.1 162.661 1622.16L162.655 1623.72ZM165.245 1622.2L165.293 1623.06C165.84 1622.4 166.558 1622.07 167.447 1622.07C168.987 1622.07 169.771 1622.95 169.798 1624.71V1629.6H168.137V1624.81C168.137 1624.34 168.034 1623.99 167.829 1623.77C167.629 1623.54 167.298 1623.43 166.838 1623.43C166.168 1623.43 165.669 1623.73 165.341 1624.34V1629.6H163.68V1622.2H165.245ZM175.916 1629.6C175.843 1629.46 175.78 1629.23 175.725 1628.91C175.196 1629.46 174.549 1629.74 173.783 1629.74C173.041 1629.74 172.434 1629.53 171.965 1629.1C171.496 1628.68 171.261 1628.15 171.261 1627.53C171.261 1626.74 171.553 1626.14 172.136 1625.72C172.724 1625.29 173.562 1625.08 174.652 1625.08H175.67V1624.6C175.67 1624.21 175.563 1623.91 175.349 1623.68C175.135 1623.45 174.809 1623.33 174.371 1623.33C173.993 1623.33 173.683 1623.43 173.442 1623.62C173.2 1623.81 173.079 1624.05 173.079 1624.34H171.418C171.418 1623.93 171.553 1623.55 171.822 1623.2C172.09 1622.85 172.455 1622.57 172.915 1622.37C173.38 1622.17 173.897 1622.07 174.467 1622.07C175.333 1622.07 176.023 1622.29 176.538 1622.72C177.053 1623.16 177.318 1623.77 177.331 1624.56V1627.89C177.331 1628.56 177.425 1629.09 177.612 1629.48V1629.6H175.916ZM174.091 1628.4C174.419 1628.4 174.727 1628.32 175.014 1628.16C175.306 1628.01 175.524 1627.79 175.67 1627.52V1626.13H174.775C174.159 1626.13 173.697 1626.23 173.387 1626.45C173.077 1626.66 172.922 1626.97 172.922 1627.36C172.922 1627.68 173.027 1627.93 173.237 1628.12C173.451 1628.31 173.736 1628.4 174.091 1628.4ZM189.499 1621.04H186.396V1629.6H184.68V1621.04H181.604V1619.65H189.499V1621.04ZM193.293 1629.74C192.24 1629.74 191.386 1629.41 190.73 1628.75C190.078 1628.08 189.752 1627.2 189.752 1626.09V1625.89C189.752 1625.15 189.893 1624.49 190.176 1623.91C190.463 1623.33 190.864 1622.88 191.379 1622.55C191.894 1622.23 192.468 1622.07 193.102 1622.07C194.109 1622.07 194.886 1622.39 195.433 1623.03C195.984 1623.67 196.26 1624.58 196.26 1625.76V1626.43H191.427C191.477 1627.04 191.68 1627.52 192.035 1627.88C192.395 1628.23 192.847 1628.41 193.389 1628.41C194.15 1628.41 194.77 1628.1 195.248 1627.49L196.144 1628.34C195.848 1628.78 195.451 1629.13 194.954 1629.37C194.462 1629.62 193.908 1629.74 193.293 1629.74ZM193.095 1623.4C192.639 1623.4 192.27 1623.56 191.988 1623.88C191.71 1624.2 191.532 1624.64 191.454 1625.21H194.619V1625.09C194.583 1624.53 194.435 1624.11 194.175 1623.83C193.915 1623.54 193.555 1623.4 193.095 1623.4ZM201.428 1623.72C201.209 1623.69 200.984 1623.67 200.751 1623.67C199.99 1623.67 199.477 1623.96 199.213 1624.54V1629.6H197.552V1622.2H199.138L199.179 1623.03C199.58 1622.39 200.136 1622.07 200.847 1622.07C201.084 1622.07 201.28 1622.1 201.435 1622.16L201.428 1623.72ZM204.039 1622.2L204.087 1622.98C204.607 1622.37 205.318 1622.07 206.22 1622.07C207.209 1622.07 207.886 1622.45 208.25 1623.2C208.788 1622.45 209.545 1622.07 210.52 1622.07C211.336 1622.07 211.942 1622.29 212.338 1622.74C212.739 1623.2 212.944 1623.86 212.953 1624.74V1629.6H211.292V1624.79C211.292 1624.32 211.19 1623.97 210.985 1623.76C210.78 1623.54 210.44 1623.43 209.966 1623.43C209.588 1623.43 209.278 1623.53 209.036 1623.74C208.799 1623.94 208.633 1624.2 208.537 1624.53L208.544 1629.6H206.883V1624.73C206.86 1623.86 206.416 1623.43 205.55 1623.43C204.885 1623.43 204.413 1623.7 204.135 1624.24V1629.6H202.474V1622.2H204.039ZM216.426 1629.6H214.765V1622.2H216.426V1629.6ZM214.662 1620.28C214.662 1620.03 214.742 1619.82 214.902 1619.65C215.066 1619.48 215.298 1619.39 215.599 1619.39C215.9 1619.39 216.132 1619.48 216.296 1619.65C216.46 1619.82 216.542 1620.03 216.542 1620.28C216.542 1620.53 216.46 1620.74 216.296 1620.91C216.132 1621.08 215.9 1621.16 215.599 1621.16C215.298 1621.16 215.066 1621.08 214.902 1620.91C214.742 1620.74 214.662 1620.53 214.662 1620.28ZM219.782 1622.2L219.83 1623.06C220.377 1622.4 221.095 1622.07 221.984 1622.07C223.524 1622.07 224.308 1622.95 224.335 1624.71V1629.6H222.674V1624.81C222.674 1624.34 222.572 1623.99 222.366 1623.77C222.166 1623.54 221.836 1623.43 221.375 1623.43C220.705 1623.43 220.206 1623.73 219.878 1624.34V1629.6H218.217V1622.2H219.782ZM230.453 1629.6C230.38 1629.46 230.317 1629.23 230.262 1628.91C229.733 1629.46 229.086 1629.74 228.321 1629.74C227.578 1629.74 226.972 1629.53 226.502 1629.1C226.033 1628.68 225.798 1628.15 225.798 1627.53C225.798 1626.74 226.09 1626.14 226.673 1625.72C227.261 1625.29 228.1 1625.08 229.189 1625.08H230.207V1624.6C230.207 1624.21 230.1 1623.91 229.886 1623.68C229.672 1623.45 229.346 1623.33 228.908 1623.33C228.53 1623.33 228.22 1623.43 227.979 1623.62C227.737 1623.81 227.616 1624.05 227.616 1624.34H225.955C225.955 1623.93 226.09 1623.55 226.359 1623.2C226.628 1622.85 226.992 1622.57 227.452 1622.37C227.917 1622.17 228.434 1622.07 229.004 1622.07C229.87 1622.07 230.56 1622.29 231.075 1622.72C231.59 1623.16 231.855 1623.77 231.868 1624.56V1627.89C231.868 1628.56 231.962 1629.09 232.149 1629.48V1629.6H230.453ZM228.628 1628.4C228.956 1628.4 229.264 1628.32 229.551 1628.16C229.843 1628.01 230.061 1627.79 230.207 1627.52V1626.13H229.312C228.697 1626.13 228.234 1626.23 227.924 1626.45C227.614 1626.66 227.459 1626.97 227.459 1627.36C227.459 1627.68 227.564 1627.93 227.774 1628.12C227.988 1628.31 228.273 1628.4 228.628 1628.4ZM235.375 1629.6H233.714V1619.1H235.375V1629.6Z" fill="black"/>
</g>
<g id="popup_lonev&#195;&#165;g">
<path id="Union_2" d="M635 730H445V790H520V803.378L519.892 900L504.82 926.147V934.863H509.717L530 900L530 790H635V730Z" fill="#F8F8F8"/>
<g id="213_2">
<path id="Rectangle 1_12" d="M455 760H505V780H455V760Z" fill="#F46F5D"/>
<path id="200_2" d="M475.441 775H468.618V773.646L471.838 770.215C472.28 769.732 472.606 769.31 472.816 768.95C473.03 768.59 473.137 768.248 473.137 767.925C473.137 767.483 473.025 767.136 472.802 766.886C472.579 766.63 472.26 766.503 471.845 766.503C471.398 766.503 471.045 766.658 470.785 766.968C470.53 767.273 470.402 767.676 470.402 768.178H468.42C468.42 767.572 468.564 767.018 468.851 766.517C469.142 766.015 469.552 765.623 470.081 765.341C470.61 765.054 471.209 764.91 471.879 764.91C472.904 764.91 473.7 765.156 474.265 765.648C474.834 766.141 475.119 766.836 475.119 767.733C475.119 768.225 474.992 768.727 474.736 769.237C474.481 769.748 474.044 770.342 473.424 771.021L471.161 773.407H475.441V775ZM483.357 770.885C483.357 772.261 483.072 773.314 482.502 774.043C481.932 774.772 481.098 775.137 480 775.137C478.915 775.137 478.086 774.779 477.512 774.063C476.938 773.348 476.644 772.322 476.63 770.987V769.155C476.63 767.765 476.917 766.71 477.491 765.99C478.07 765.27 478.902 764.91 479.986 764.91C481.071 764.91 481.9 765.268 482.475 765.983C483.049 766.694 483.343 767.717 483.357 769.053V770.885ZM481.381 768.875C481.381 768.05 481.267 767.451 481.039 767.077C480.816 766.699 480.465 766.51 479.986 766.51C479.522 766.51 479.177 766.69 478.954 767.05C478.735 767.405 478.619 767.963 478.606 768.725V771.144C478.606 771.956 478.715 772.559 478.934 772.956C479.157 773.348 479.512 773.544 480 773.544C480.483 773.544 480.832 773.355 481.046 772.976C481.26 772.598 481.372 772.019 481.381 771.24V768.875ZM491.396 770.885C491.396 772.261 491.111 773.314 490.541 774.043C489.971 774.772 489.137 775.137 488.039 775.137C486.955 775.137 486.125 774.779 485.551 774.063C484.977 773.348 484.683 772.322 484.669 770.987V769.155C484.669 767.765 484.956 766.71 485.53 765.99C486.109 765.27 486.941 764.91 488.025 764.91C489.11 764.91 489.94 765.268 490.514 765.983C491.088 766.694 491.382 767.717 491.396 769.053V770.885ZM489.42 768.875C489.42 768.05 489.306 767.451 489.078 767.077C488.855 766.699 488.504 766.51 488.025 766.51C487.561 766.51 487.217 766.69 486.993 767.05C486.774 767.405 486.658 767.963 486.645 768.725V771.144C486.645 771.956 486.754 772.559 486.973 772.956C487.196 773.348 487.552 773.544 488.039 773.544C488.522 773.544 488.871 773.355 489.085 772.976C489.299 772.598 489.411 772.019 489.42 771.24V768.875Z" fill="white"/>
</g>
<g id="214_2">
<path id="Rectangle 1_13" d="M515 760H565V780H515V760Z" fill="#F46F5D"/>
<path id="204_2" d="M535.441 775H528.618V773.646L531.838 770.215C532.28 769.732 532.606 769.31 532.816 768.95C533.03 768.59 533.137 768.248 533.137 767.925C533.137 767.483 533.025 767.136 532.802 766.886C532.579 766.63 532.26 766.503 531.845 766.503C531.398 766.503 531.045 766.658 530.785 766.968C530.53 767.273 530.402 767.676 530.402 768.178H528.42C528.42 767.572 528.564 767.018 528.851 766.517C529.142 766.015 529.552 765.623 530.081 765.341C530.61 765.054 531.209 764.91 531.879 764.91C532.904 764.91 533.7 765.156 534.265 765.648C534.834 766.141 535.119 766.836 535.119 767.733C535.119 768.225 534.992 768.727 534.736 769.237C534.481 769.748 534.044 770.342 533.424 771.021L531.161 773.407H535.441V775ZM543.357 770.885C543.357 772.261 543.072 773.314 542.502 774.043C541.932 774.772 541.098 775.137 540 775.137C538.915 775.137 538.086 774.779 537.512 774.063C536.938 773.348 536.644 772.322 536.63 770.987V769.155C536.63 767.765 536.917 766.71 537.491 765.99C538.07 765.27 538.902 764.91 539.986 764.91C541.071 764.91 541.9 765.268 542.475 765.983C543.049 766.694 543.343 767.717 543.357 769.053V770.885ZM541.381 768.875C541.381 768.05 541.267 767.451 541.039 767.077C540.816 766.699 540.465 766.51 539.986 766.51C539.522 766.51 539.177 766.69 538.954 767.05C538.735 767.405 538.619 767.963 538.606 768.725V771.144C538.606 771.956 538.715 772.559 538.934 772.956C539.157 773.348 539.512 773.544 540 773.544C540.483 773.544 540.832 773.355 541.046 772.976C541.26 772.598 541.372 772.019 541.381 771.24V768.875ZM550.541 771.254H551.669V772.847H550.541V775H548.566V772.847H544.484L544.396 771.602L548.545 765.047H550.541V771.254ZM546.364 771.254H548.566V767.74L548.436 767.966L546.364 771.254Z" fill="white"/>
</g>
<g id="215_2">
<path id="Rectangle 1_14" d="M575 760H625V780H575V760Z" fill="#F46F5D"/>
<path id="210_2" d="M595.441 775H588.618V773.646L591.838 770.215C592.28 769.732 592.606 769.31 592.816 768.95C593.03 768.59 593.137 768.248 593.137 767.925C593.137 767.483 593.025 767.136 592.802 766.886C592.579 766.63 592.26 766.503 591.845 766.503C591.398 766.503 591.045 766.658 590.785 766.968C590.53 767.273 590.403 767.676 590.403 768.178H588.42C588.42 767.572 588.564 767.018 588.851 766.517C589.142 766.015 589.553 765.623 590.081 765.341C590.61 765.054 591.209 764.91 591.879 764.91C592.904 764.91 593.7 765.156 594.265 765.648C594.834 766.141 595.119 766.836 595.119 767.733C595.119 768.225 594.992 768.727 594.736 769.237C594.481 769.748 594.044 770.342 593.424 771.021L591.161 773.407H595.441V775ZM601.456 775H599.481V767.385L597.122 768.116V766.51L601.244 765.033H601.456V775ZM611.396 770.885C611.396 772.261 611.111 773.314 610.541 774.043C609.972 774.772 609.138 775.137 608.039 775.137C606.955 775.137 606.125 774.779 605.551 774.063C604.977 773.348 604.683 772.322 604.669 770.987V769.155C604.669 767.765 604.956 766.71 605.53 765.99C606.109 765.27 606.941 764.91 608.026 764.91C609.11 764.91 609.94 765.268 610.514 765.983C611.088 766.694 611.382 767.717 611.396 769.053V770.885ZM609.42 768.875C609.42 768.05 609.306 767.451 609.078 767.077C608.855 766.699 608.504 766.51 608.026 766.51C607.561 766.51 607.217 766.69 606.993 767.05C606.775 767.405 606.658 767.963 606.645 768.725V771.144C606.645 771.956 606.754 772.559 606.973 772.956C607.196 773.348 607.552 773.544 608.039 773.544C608.522 773.544 608.871 773.355 609.085 772.976C609.299 772.598 609.411 772.019 609.42 771.24V768.875Z" fill="white"/>
</g>
<path id="Lonev&#195;&#165;g" d="M456.348 748.219H460.866V749.6H454.618V739.647H456.348V748.219ZM461.721 745.834C461.721 745.109 461.865 744.457 462.152 743.879C462.439 743.295 462.842 742.849 463.362 742.539C463.881 742.224 464.478 742.067 465.153 742.067C466.151 742.067 466.96 742.388 467.579 743.031C468.204 743.673 468.541 744.526 468.591 745.588L468.598 745.977C468.598 746.706 468.457 747.358 468.174 747.932C467.896 748.506 467.495 748.951 466.971 749.265C466.451 749.58 465.85 749.737 465.166 749.737C464.123 749.737 463.286 749.391 462.657 748.698C462.033 748.001 461.721 747.073 461.721 745.916V745.834ZM463.382 745.977C463.382 746.738 463.539 747.335 463.854 747.768C464.168 748.197 464.606 748.411 465.166 748.411C465.727 748.411 466.162 748.192 466.472 747.755C466.786 747.317 466.944 746.677 466.944 745.834C466.944 745.086 466.782 744.494 466.458 744.056C466.139 743.619 465.704 743.4 465.153 743.4C464.61 743.4 464.18 743.616 463.861 744.049C463.542 744.478 463.382 745.12 463.382 745.977ZM471.544 742.204L471.592 743.058C472.139 742.397 472.857 742.067 473.745 742.067C475.286 742.067 476.07 742.949 476.097 744.713V749.6H474.436V744.808C474.436 744.339 474.333 743.992 474.128 743.769C473.928 743.541 473.597 743.427 473.137 743.427C472.467 743.427 471.968 743.73 471.64 744.337V749.6H469.979V742.204H471.544ZM481.053 749.737C480 749.737 479.146 749.407 478.49 748.746C477.838 748.08 477.512 747.196 477.512 746.093V745.888C477.512 745.15 477.653 744.491 477.936 743.913C478.223 743.329 478.624 742.876 479.139 742.552C479.654 742.229 480.228 742.067 480.862 742.067C481.869 742.067 482.646 742.388 483.193 743.031C483.744 743.673 484.02 744.583 484.02 745.758V746.428H479.187C479.237 747.039 479.44 747.522 479.795 747.878C480.155 748.233 480.606 748.411 481.149 748.411C481.91 748.411 482.53 748.103 483.008 747.488L483.904 748.342C483.607 748.784 483.211 749.129 482.714 749.375C482.222 749.616 481.668 749.737 481.053 749.737ZM480.855 743.4C480.399 743.4 480.03 743.56 479.747 743.879C479.469 744.198 479.292 744.642 479.214 745.212H482.379V745.089C482.343 744.533 482.195 744.113 481.935 743.831C481.675 743.544 481.315 743.4 480.855 743.4ZM487.827 747.495L489.393 742.204H491.109L488.545 749.6H487.103L484.519 742.204H486.241L487.827 747.495ZM496.461 749.6C496.388 749.459 496.324 749.229 496.27 748.91C495.741 749.461 495.094 749.737 494.328 749.737C493.586 749.737 492.979 749.525 492.51 749.101C492.041 748.677 491.806 748.153 491.806 747.529C491.806 746.741 492.098 746.137 492.681 745.717C493.269 745.294 494.107 745.082 495.197 745.082H496.215V744.596C496.215 744.214 496.108 743.908 495.894 743.68C495.68 743.448 495.354 743.332 494.916 743.332C494.538 743.332 494.228 743.427 493.987 743.619C493.745 743.806 493.624 744.045 493.624 744.337H491.963C491.963 743.931 492.098 743.553 492.366 743.202C492.635 742.846 493 742.568 493.46 742.368C493.925 742.167 494.442 742.067 495.012 742.067C495.878 742.067 496.568 742.286 497.083 742.723C497.598 743.156 497.863 743.767 497.876 744.555V747.891C497.876 748.557 497.97 749.088 498.156 749.484V749.6H496.461ZM494.636 748.404C494.964 748.404 495.272 748.324 495.559 748.165C495.851 748.005 496.069 747.791 496.215 747.522V746.128H495.32C494.704 746.128 494.242 746.235 493.932 746.449C493.622 746.663 493.467 746.966 493.467 747.358C493.467 747.677 493.572 747.932 493.781 748.124C493.996 748.311 494.281 748.404 494.636 748.404ZM495.073 738.458C495.497 738.458 495.855 738.599 496.147 738.881C496.438 739.159 496.584 739.492 496.584 739.88C496.584 740.267 496.441 740.597 496.154 740.871C495.871 741.144 495.511 741.281 495.073 741.281C494.631 741.281 494.267 741.144 493.98 740.871C493.697 740.597 493.556 740.267 493.556 739.88C493.556 739.492 493.699 739.159 493.987 738.881C494.278 738.599 494.641 738.458 495.073 738.458ZM494.308 739.88C494.308 740.094 494.383 740.276 494.533 740.426C494.684 740.572 494.864 740.645 495.073 740.645C495.288 740.645 495.468 740.572 495.614 740.426C495.764 740.281 495.839 740.098 495.839 739.88C495.839 739.67 495.766 739.49 495.62 739.339C495.479 739.185 495.297 739.107 495.073 739.107C494.85 739.107 494.666 739.185 494.52 739.339C494.378 739.49 494.308 739.67 494.308 739.88ZM499.325 745.847C499.325 744.699 499.594 743.783 500.132 743.099C500.674 742.411 501.392 742.067 502.285 742.067C503.128 742.067 503.792 742.361 504.275 742.949L504.35 742.204H505.847V749.375C505.847 750.345 505.544 751.111 504.938 751.672C504.336 752.232 503.523 752.512 502.497 752.512C501.955 752.512 501.424 752.398 500.905 752.171C500.39 751.947 499.998 751.653 499.729 751.289L500.515 750.291C501.025 750.897 501.654 751.2 502.402 751.2C502.953 751.2 503.388 751.049 503.707 750.749C504.026 750.452 504.186 750.015 504.186 749.436V748.937C503.707 749.47 503.069 749.737 502.272 749.737C501.406 749.737 500.697 749.393 500.146 748.705C499.599 748.017 499.325 747.064 499.325 745.847ZM500.98 745.991C500.98 746.734 501.13 747.319 501.431 747.748C501.736 748.172 502.158 748.383 502.696 748.383C503.365 748.383 503.862 748.096 504.186 747.522V744.268C503.871 743.708 503.379 743.427 502.709 743.427C502.162 743.427 501.736 743.644 501.431 744.077C501.13 744.51 500.98 745.148 500.98 745.991Z" fill="black"/>
</g>
<rect id="terminal_lonev&#195;&#165;g" x="487.854" y="928.308" width="26" height="26" fill="#F46F5D" stroke="#727272" stroke-width="4"/>
<rect id="terminal_arna" x="365.787" y="1605.84" width="26" height="26" fill="#F46F5D" stroke="#727272" stroke-width="4"/>
</g>
</g>
<defs>
<linearGradient id="paint0_linear" x1="570" y1="0" x2="570" y2="1560" gradientUnits="userSpaceOnUse">
<stop stop-color="white"/>
<stop offset="1" stop-color="white" stop-opacity="0"/>
</linearGradient>
<clipPath id="clip0">
<rect width="1125" height="2000" fill="white"/>
</clipPath>
<clipPath id="clip1">
<rect width="1125" height="2000" fill="white"/>
</clipPath>
</defs>
</svg>
